<?xml version="1.0" standalone="no"?>
<!DOCTYPE svg PUBLIC "-//W3C//DTD SVG 20010904//EN"
 "http://www.w3.org/TR/2001/REC-SVG-20010904/DTD/svg10.dtd">
<svg version="1.0" xmlns="http://www.w3.org/2000/svg"
 width="512.000000pt" height="512.000000pt" viewBox="0 0 512.000000 512.000000"
 preserveAspectRatio="xMidYMid meet">
<metadata>
Created by potrace 1.14, written by Peter Selinger 2001-2017
</metadata>
<g transform="translate(0.000000,512.000000) scale(0.100000,-0.100000)"
fill="#000000" stroke="none">
<path d="M2360 4950 c-139 -38 -397 -169 -565 -287 -370 -260 -529 -424 -728
-753 -105 -174 -133 -226 -168 -315 -45 -114 -118 -287 -129 -307 -20 -36 -79
-197 -99 -270 -31 -110 -93 -286 -155 -440 -29 -73 -59 -157 -66 -185 -6 -29
-15 -53 -19 -53 -5 0 -16 -18 -26 -40 -10 -22 -29 -55 -42 -72 -12 -18 -23
-36 -23 -41 0 -14 41 41 66 87 30 56 49 60 40 10 -4 -22 -12 -40 -17 -42 -5
-2 -9 -17 -9 -34 0 -17 -11 -76 -24 -132 -14 -55 -29 -121 -34 -146 -8 -36
-10 -39 -11 -15 0 26 7 67 34 200 3 18 -2 10 -15 -20 -11 -27 -25 -90 -31
-140 -13 -116 -23 -154 -54 -199 -30 -44 -33 -68 -5 -35 10 13 19 21 20 17 0
-16 -44 -98 -56 -102 -16 -6 -85 99 -154 237 -30 60 -59 109 -65 108 -5 -1
-13 8 -17 21 -3 13 -6 -433 -7 -989 l-1 -1013 920 0 c784 0 919 2 914 14 -3 8
-1 17 5 21 7 3 11 -2 11 -15 0 -19 5 -20 104 -19 123 1 117 -13 56 149 -25 66
-38 114 -34 125 5 11 4 16 -3 12 -15 -10 -31 58 -34 143 -7 235 -4 335 9 332
8 -1 16 6 19 17 3 11 12 22 20 25 8 4 11 1 7 -5 -3 -6 3 -5 14 2 12 7 27 9 38
4 11 -4 26 -7 36 -6 9 1 19 -3 22 -8 4 -6 13 -8 21 -5 8 4 12 10 9 15 -10 17
47 9 104 -15 93 -39 164 -49 292 -43 109 6 235 25 226 34 -2 2 -49 -1 -104 -7
-146 -16 -323 0 -392 35 -47 24 -294 195 -337 234 -10 9 -36 29 -58 46 -131
96 -360 308 -416 383 -40 55 -67 108 -79 153 -22 80 -26 428 -7 479 4 8 11 44
17 80 7 36 15 70 19 75 13 16 22 77 11 70 -6 -3 -10 -11 -10 -16 0 -6 -9 -29
-19 -52 -11 -23 -24 -69 -31 -102 -6 -33 -17 -85 -25 -115 -12 -49 -13 -51
-14 -20 -1 19 3 51 9 70 5 19 12 51 15 70 8 50 22 91 71 210 23 58 53 138 66
178 12 41 24 69 26 63 2 -6 10 -11 18 -11 9 0 12 4 9 10 -7 11 23 2 41 -12 7
-5 22 -11 34 -13 46 -9 59 -16 53 -31 -6 -16 8 -19 22 -5 6 5 35 11 65 15 37
4 50 3 40 -3 -23 -15 -6 -23 25 -11 20 8 30 8 35 0 4 -7 32 -8 79 -4 46 5 68
10 59 16 -8 5 8 6 40 4 49 -4 52 -3 47 15 -4 10 -2 19 4 19 15 0 41 54 41 85
0 33 7 32 58 -13 30 -25 44 -46 45 -65 1 -18 9 -29 22 -33 11 -4 23 -12 27
-18 12 -19 21 2 14 36 -9 52 -139 175 -213 204 -41 16 -51 23 -33 23 42 1 103
-33 171 -95 35 -33 75 -68 88 -79 l25 -20 -22 31 c-32 46 -127 126 -180 151
-48 23 -116 30 -127 14 -6 -10 -48 -1 -85 19 -14 7 -25 8 -29 3 -3 -6 -28 -13
-56 -16 -80 -11 -154 -38 -187 -69 -16 -15 -34 -25 -39 -22 -13 7 13 44 30 41
8 -1 16 4 18 11 3 7 -1 10 -9 7 -8 -3 -18 7 -26 25 -8 17 -17 28 -22 25 -16
-10 18 113 37 132 29 29 118 56 164 50 48 -6 205 -54 241 -73 30 -16 52 -18
43 -4 -8 12 0 13 23 1 35 -18 122 -39 122 -29 0 5 9 6 20 3 22 -7 27 8 8 25
-57 48 -79 61 -139 84 -38 14 -102 38 -141 54 -63 23 -87 27 -179 27 l-105 0
18 58 c10 33 18 70 18 85 0 14 6 33 14 41 22 26 78 140 73 148 -15 24 236 356
261 348 8 -3 12 0 9 7 -2 7 12 22 32 34 22 12 35 27 33 36 -3 21 18 35 28 19
5 -9 11 -7 21 5 12 16 12 17 -3 11 -10 -3 -18 -2 -18 3 0 10 15 14 34 11 5 -1
16 5 25 13 25 22 194 105 230 112 17 4 37 14 44 23 15 22 59 38 121 45 27 3
61 13 74 22 18 12 30 14 46 6 15 -7 28 -6 42 1 10 6 24 12 29 14 45 12 68 14
91 9 l27 -7 -23 -24 c-24 -26 -23 -46 1 -23 8 7 33 26 56 41 42 29 63 29 63 1
0 -8 7 -17 15 -20 8 -3 17 -21 21 -40 3 -19 10 -32 14 -29 9 6 20 -19 20 -45
0 -17 46 -96 88 -150 20 -26 54 -91 116 -220 37 -79 60 -117 192 -327 44 -70
94 -162 111 -203 52 -127 103 -240 160 -360 71 -147 78 -167 98 -291 14 -91
15 -129 5 -304 -7 -110 -18 -234 -26 -275 -8 -41 -14 -79 -14 -85 1 -21 29 41
35 78 4 20 11 37 16 37 6 0 8 -4 5 -9 -3 -4 -10 -51 -16 -102 -14 -121 -14
-121 -55 -143 -24 -13 -54 -49 -97 -115 -90 -141 -160 -231 -232 -301 -72 -70
-392 -309 -498 -372 -38 -22 -67 -42 -65 -44 6 -6 84 34 140 72 80 53 98 65
160 111 57 43 100 51 58 12 -25 -24 -27 -31 -4 -22 12 5 15 2 11 -9 -5 -11 -1
-14 18 -10 36 7 38 -16 15 -141 -25 -130 -26 -201 -7 -277 7 -30 14 -76 14
-102 0 -64 12 -128 23 -128 5 0 9 6 9 14 0 8 4 17 8 20 12 7 52 -5 52 -16 0
-16 53 -80 114 -137 33 -31 97 -93 144 -138 l85 -83 151 0 c152 0 183 5 288
48 30 12 62 14 148 9 60 -3 115 -9 122 -14 7 -4 21 -9 31 -10 10 -2 25 -10 33
-18 12 -12 46 -15 170 -15 152 0 155 0 141 20 -17 25 -51 50 -105 80 -34 19
-44 32 -53 64 -18 69 -98 173 -174 226 -61 42 -175 99 -213 106 -31 6 -33 9
-28 34 11 56 18 215 8 202 -5 -7 -7 -24 -4 -37 5 -30 -15 -122 -34 -153 -16
-24 -58 -30 -70 -10 -4 6 -8 113 -10 237 -1 124 -5 317 -9 429 -5 141 -4 202
4 202 16 0 61 -103 61 -141 0 -47 53 -319 62 -319 5 0 8 12 8 26 0 14 3 23 8
21 8 -6 8 -119 0 -133 -4 -5 0 -20 8 -34 12 -22 14 -12 11 100 -3 95 -10 155
-33 249 -21 91 -30 117 -35 100 l-7 -24 -3 23 c-1 12 -3 34 -4 50 -1 15 -10
52 -20 82 -10 31 -19 98 -21 155 -2 55 -6 126 -10 157 -3 32 -2 77 2 100 l8
43 8 -55 c18 -131 32 -210 37 -210 7 0 6 64 -4 250 -4 78 -1 157 10 245 29
242 34 290 40 431 4 99 1 179 -10 275 -8 74 -22 197 -30 274 -14 131 -24 219
-45 375 -23 174 -93 386 -177 540 l-25 45 33 -35 32 -35 -33 60 c-107 195
-312 436 -482 563 -85 64 -255 156 -327 176 -36 10 -75 25 -87 32 -11 8 -28
12 -36 9 -8 -3 -67 21 -132 54 -165 84 -251 105 -391 98 -96 -5 -137 -12 -265
-42 -56 -14 35 29 100 46 36 9 56 17 45 17 -11 0 -49 -8 -85 -18z m-513 -2136
c-3 -3 -12 -4 -19 -1 -8 3 -5 6 6 6 11 1 17 -2 13 -5z m-25 -114 c-3 -29 2
-47 19 -71 l23 -32 -44 7 c-25 4 -52 14 -62 23 -34 31 -17 88 32 106 31 11 35
7 32 -33z m198 0 c0 -5 -9 -10 -20 -10 -11 0 -20 5 -20 10 0 6 9 10 20 10 11
0 20 -4 20 -10z m-1536 -359 c-9 -29 -19 -50 -21 -47 -3 3 3 28 12 56 9 28 19
49 22 47 2 -3 -3 -28 -13 -56z m3753 -1133 c-3 -8 -6 -5 -6 6 -1 11 2 17 5 13
3 -3 4 -12 1 -19z m-908 -121 c-2 -1 -13 -9 -24 -17 -19 -14 -19 -14 -6 3 7 9
18 17 24 17 6 0 8 -1 6 -3z m1050 -662 c39 -19 47 -19 30 2 -13 15 -12 15 8 5
12 -7 26 -18 30 -25 4 -7 24 -23 44 -35 52 -32 127 -115 151 -168 11 -25 18
-48 16 -50 -3 -2 -27 7 -54 21 -27 14 -71 32 -98 40 -27 8 -64 23 -81 34 -18
10 -52 22 -76 26 -71 12 -108 31 -106 54 1 12 7 21 14 21 41 0 -10 54 -66 69
-33 10 -41 15 -30 22 21 14 184 2 218 -16z m-165 -57 c-3 -11 0 -26 7 -34 11
-14 9 -15 -17 -12 -18 2 -29 9 -29 18 0 8 -6 19 -12 23 -23 15 -13 25 22 24
29 -1 34 -4 29 -19z m-2235 -328 c0 -23 -15 7 -22 45 l-6 30 14 -30 c8 -16 14
-37 14 -45z"/>
<path d="M3230 3090 c-124 -14 -264 -42 -281 -57 -12 -10 -18 -11 -21 -3 -4
14 -78 -26 -79 -43 0 -7 -2 -21 -4 -31 -6 -33 19 -48 62 -38 21 6 73 15 116
22 42 7 77 17 77 21 0 5 24 9 53 10 28 0 70 6 92 12 27 9 67 10 130 5 96 -9
166 -36 219 -85 15 -14 29 -23 31 -21 9 8 -39 92 -70 122 -75 75 -179 102
-325 86z"/>
<path d="M1590 2866 c0 -8 5 -18 10 -21 6 -3 10 1 10 9 0 8 -4 18 -10 21 -5 3
-10 -1 -10 -9z"/>
<path d="M3088 2805 c-2 -3 -23 -7 -46 -10 -41 -5 -92 -28 -160 -70 -36 -22
-42 -40 -12 -32 27 7 30 -12 8 -53 -23 -44 -24 -74 -2 -66 9 3 34 7 57 7 l42
2 -37 10 c-21 6 -38 15 -38 21 1 6 22 28 48 48 l46 37 13 -52 c12 -45 12 -53
-1 -63 -13 -9 -4 -13 42 -24 31 -7 62 -17 67 -21 10 -7 141 11 259 38 63 14
70 14 78 -1 12 -21 32 -21 24 0 -5 13 2 15 37 14 89 -4 133 0 117 10 -8 5 -32
12 -52 15 -21 4 -38 10 -38 15 0 4 -9 10 -21 13 -14 4 -18 10 -13 18 5 9 2 10
-9 6 -8 -3 -18 0 -20 8 -3 7 -19 20 -36 29 -17 9 -44 23 -61 32 -16 8 -33 13
-37 11 -5 -3 -14 1 -21 9 -10 11 -7 13 20 7 59 -11 181 -81 174 -99 -3 -7 5
-9 20 -6 l24 4 -29 27 c-29 27 -148 91 -170 91 -7 0 -34 7 -60 16 -59 19 -167
16 -163 -5 2 -9 -3 -11 -13 -7 -9 3 -20 6 -23 6 -4 0 0 5 8 10 13 8 13 10 -1
10 -9 0 -18 -2 -21 -5z m87 -115 c3 -6 -1 -13 -10 -16 -19 -8 -30 0 -20 15 8
14 22 14 30 1z m186 -22 c23 -18 44 -38 46 -45 4 -12 -40 -29 -106 -39 l-45
-7 21 34 c14 22 19 44 16 62 -7 37 14 36 68 -5z"/>
<path d="M3110 2504 c0 -8 5 -12 10 -9 6 3 10 10 10 16 0 5 -4 9 -10 9 -5 0
-10 -7 -10 -16z"/>
<path d="M2280 2142 c-67 -44 -150 -146 -150 -184 0 -27 68 -86 125 -107 67
-25 81 -26 89 -5 5 14 9 13 36 -3 16 -9 33 -25 36 -35 10 -32 67 -58 125 -57
30 0 63 4 74 9 17 7 15 8 -11 8 -36 -1 -63 12 -153 76 l-69 48 -49 -14 c-83
-24 -143 6 -144 73 -1 41 12 76 40 108 12 13 21 30 21 38 0 7 14 16 30 20 21
4 30 11 30 24 0 11 -1 19 -2 18 -2 0 -14 -8 -28 -17z"/>
<path d="M2320 2128 c0 -4 9 -8 20 -8 11 0 20 4 20 8 0 4 -9 8 -20 8 -11 0
-20 -4 -20 -8z"/>
<path d="M2715 1889 c-35 -20 -94 -82 -88 -92 3 -5 23 8 45 30 38 37 41 38
113 38 41 0 78 5 84 10 7 7 1 11 -17 12 -15 0 -47 4 -72 7 -27 4 -53 2 -65 -5z"/>
<path d="M2390 1629 c0 -5 4 -8 9 -4 9 5 73 -6 117 -21 10 -3 6 3 -11 15 -32
22 -115 30 -115 10z"/>
<path d="M2793 1619 c3 -12 0 -19 -8 -19 -8 0 -18 -6 -22 -13 -4 -6 -30 -23
-58 -36 -27 -13 -54 -30 -58 -38 -4 -7 -20 -13 -35 -13 -25 1 -26 1 -8 15 18
14 18 14 0 14 -53 1 -163 29 -196 49 -22 14 -43 20 -50 16 -8 -5 -7 -1 2 10
14 18 11 18 -50 11 -36 -3 -81 -10 -100 -15 -72 -17 -170 -22 -206 -10 -19 7
-38 9 -41 6 -4 -3 15 -25 40 -49 26 -24 47 -51 47 -60 0 -9 7 -17 15 -17 8 0
15 -6 15 -14 0 -22 117 -124 179 -155 59 -30 171 -52 259 -50 39 1 42 2 22 9
-14 4 -42 8 -62 9 -34 1 -67 21 -34 21 9 0 14 9 13 23 -1 27 -14 37 -48 37
-31 0 -69 38 -69 68 0 16 6 21 23 20 12 0 27 0 32 2 22 6 46 -1 40 -11 -5 -7
9 -9 42 -7 41 3 48 1 45 -14 -4 -22 -3 -22 37 -2 18 9 45 14 61 12 16 -2 27
-1 25 3 -3 4 4 9 15 12 12 3 18 1 14 -5 -4 -5 4 -4 17 2 31 17 109 19 109 3 0
-20 57 -16 69 5 9 16 11 16 24 -3 13 -17 18 -18 39 -7 13 8 30 12 38 10 24 -5
22 29 -2 52 -19 18 -20 22 -8 30 8 5 20 10 27 10 6 0 18 2 26 5 18 8 19 -25 0
-47 -10 -11 -11 -18 -4 -23 13 -7 56 37 78 78 13 25 19 28 56 25 23 -1 41 1
40 5 -2 4 -3 11 -3 16 0 26 -92 16 -130 -14 -17 -14 -93 -28 -86 -16 7 10 -24
26 -107 55 -65 23 -69 23 -64 5z m47 -153 c0 -3 -4 -8 -10 -11 -5 -3 -10 -1
-10 4 0 6 5 11 10 11 6 0 10 -2 10 -4z m-509 -160 c5 3 9 0 9 -6 0 -15 -23 -7
-26 8 -1 7 0 8 3 2 2 -5 9 -8 14 -4z m77 -23 c-10 -2 -28 -2 -40 0 -13 2 -5 4
17 4 22 1 32 -1 23 -4z"/>
<path d="M2735 1610 c3 -5 10 -10 16 -10 5 0 9 5 9 10 0 6 -7 10 -16 10 -8 0
-12 -4 -9 -10z"/>
<path d="M2477 1579 c7 -7 15 -10 18 -7 3 3 -2 9 -12 12 -14 6 -15 5 -6 -5z"/>
<path d="M4233 1540 c0 -25 2 -35 4 -22 2 12 2 32 0 45 -2 12 -4 2 -4 -23z"/>
<path d="M2823 1387 c-25 -13 -30 -27 -11 -27 6 0 8 -3 5 -6 -4 -4 -13 -1 -22
6 -23 19 -18 2 8 -29 21 -25 25 -26 54 -14 33 13 61 42 29 30 -13 -5 -16 -1
-14 20 3 31 -14 37 -49 20z"/>
<path d="M2560 1386 c0 -9 30 -14 35 -6 4 6 -3 10 -14 10 -12 0 -21 -2 -21 -4z"/>
<path d="M2620 1353 c-31 -6 -44 -18 -36 -32 5 -8 16 -6 36 4 28 14 50 36 33
34 -4 -1 -19 -4 -33 -6z"/>
<path d="M2578 1243 c6 -2 18 -2 25 0 6 3 1 5 -13 5 -14 0 -19 -2 -12 -5z"/>
<path d="M2800 800 c-20 -6 -21 -8 -5 -8 11 0 29 3 40 8 25 11 -1 11 -35 0z"/>
<path d="M1945 710 c3 -5 8 -10 11 -10 2 0 4 5 4 10 0 6 -5 10 -11 10 -5 0 -7
-4 -4 -10z"/>
</g>
</svg>
